<svg xmlns="http://www.w3.org/2000/svg" viewBox="0 0 64 80" role="img" aria-label="Cell tower">
  <defs>
    <filter id="shadow" x="-35%" y="-25%" width="170%" height="165%">
      <feDropShadow dx="0" dy="2" stdDeviation="2" flood-color="#020817" flood-opacity=".9"/>
    </filter>
  </defs>
  <g filter="url(#shadow)" stroke-linecap="round" stroke-linejoin="round">
    <g fill="none" stroke="#67e8f9" stroke-width="3">
      <path d="M22 13a14 14 0 0 0 0 20"/>
      <path d="M15 7a23 23 0 0 0 0 32"/>
      <path d="M42 13a14 14 0 0 1 0 20"/>
      <path d="M49 7a23 23 0 0 1 0 32"/>
    </g>
    <circle cx="32" cy="22" r="4" fill="#76b900" stroke="#f8fafc" stroke-width="2"/>
    <path d="M32 26v12M32 38 18 71M32 38l14 33M23 59h18M26 50h12M20 68h24"
          fill="none" stroke="#f8fafc" stroke-width="3"/>
    <path d="m26 50 15 9M38 50l-15 9" fill="none" stroke="#67e8f9" stroke-width="2"/>
    <rect x="20" y="29" width="7" height="16" rx="2" fill="#f8fafc" stroke="#082f49" stroke-width="2"/>
    <rect x="37" y="29" width="7" height="16" rx="2" fill="#f8fafc" stroke="#082f49" stroke-width="2"/>
    <path d="M13 73h38" fill="none" stroke="#76b900" stroke-width="4"/>
  </g>
</svg>
